<?xml version="1.0" ?><!DOCTYPE svg  PUBLIC '-//W3C//DTD SVG 1.1//EN'  'http://www.w3.org/Graphics/SVG/1.1/DTD/svg11.dtd'><svg enable-background="new 0 0 512 512" height="512px" id="Layer_1" version="1.1" viewBox="0 0 512 512" width="512px" xml:space="preserve" xmlns="http://www.w3.org/2000/svg" xmlns:xlink="http://www.w3.org/1999/xlink"><g><g><g><polyline fill="#1E1A18" opacity="0.502" points="201.511,400.313 201.511,413.987 321.309,413.993 321.309,400.323       201.511,400.313     "/><path d="M339.648,379.327c-10.484,0-18.986-8.502-18.983-18.989      c-0.006-10.487,8.504-18.988,18.986-18.988c10.484,0,18.991,8.507,18.991,18.994      C358.643,370.82,350.139,379.327,339.648,379.327 M181.475,379.321c-10.493,0-18.997-8.512-18.997-18.994      c0.005-10.487,8.507-18.988,18.997-18.988c10.488,0,18.989,8.501,18.981,18.994      C200.459,370.814,191.958,379.316,181.475,379.321 M184.324,183.054v19.203l-50.4-0.003l-0.011,193.405l254.184,0.011      l0.011-193.402h-50.399l0.002-19.205L184.324,183.054" fill="#1E1A18" opacity="0.502"/><path d="M112.018,335.757c-0.009,0-0.018,0.001-0.026,0.003      c-17.593,3.669-30.792,19.254-30.794,37.934c0,18.438,12.866,33.865,30.115,37.783c0.012,0.003,0.024,0.004,0.036,0.004      c0.77,0,1.358-5.977,1.75-14.566c0.103-2.234,15.774-7.17,15.774-7.17l0.211-34.347c0,0-15.636-5.72-15.729-8.182      C113.083,340.325,112.64,335.757,112.018,335.757" fill="#1E1A18" opacity="0.502"/><path d="M410.644,332.676c-0.778,0-1.362,5.975-1.755,14.577      c-0.1,2.229-15.774,7.16-15.774,7.16l-0.211,34.357c0,0,15.631,5.72,15.734,8.177c0.264,6.878,0.708,11.448,1.323,11.448      c0.01,0,0.02-0.001,0.029-0.003c17.59-3.664,30.8-19.249,30.8-37.924c-0.003-18.438-12.869-33.871-30.112-37.789      C410.666,332.677,410.655,332.676,410.644,332.676" fill="#1E1A18" opacity="0.502"/><path d="M254.23,33.562c-7.5,0-13.594,6.083-13.597,13.597c0,7.512,6.093,13.602,13.591,13.602      c0.002,0,0.003,0,0.005,0c0.232,0,0.463-0.024,0.701-0.035c2.614,2.122,4.284,4.868,4.784,8.036      c1.028,6.624-2.917,14.484-10.563,21.04c-7.111,6.091-10.563,13.063-10.266,20.718c0.265,6.986,3.764,13.147,7.441,17.769      c-21.47,2.27-52.692,9.408-55.739,23.469c-0.168,0.788,12.062,1.329,20.791,1.64c2.238,0.076,1.199,23.456,1.199,23.456      l96.387-0.135c0,0-0.73-23.445,1.734-23.562c6.984-0.349,17.782-0.847,17.647-1.475c-3.739-17.095-48.144-24.035-67.723-24.216      c-2.676-2.229-10.585-9.457-10.888-17.36c-0.168-4.24,1.948-8.19,6.48-12.065c10.682-9.154,15.861-20.428,14.219-30.954      c-0.685-4.375-2.565-8.347-5.426-11.662c1.77-2.292,2.822-5.149,2.822-8.264C267.835,39.645,261.747,33.562,254.23,33.562" fill="#1E1A18" opacity="0.502"/></g><path d="M108.752,341.371c0.089,2.457,15.688,8.16,15.688,8.16l-0.206,34.261c0,0-15.637,4.919-15.737,7.138     c-0.397,8.701-1.003,14.708-1.78,14.529c-17.2-3.912-30.039-19.297-30.039-37.686c0-18.626,13.177-34.162,30.716-37.826     C108.033,329.813,108.474,334.401,108.752,341.371z" fill="#999999"/><g><path d="M403.242,390.967c-0.103-2.456-15.702-8.16-15.702-8.16l0.214-34.255c0,0,15.634-4.919,15.729-7.143      c0.398-8.707,0.999-14.714,1.786-14.53c17.203,3.901,30.042,19.292,30.039,37.681c-0.005,18.626-13.177,34.173-30.713,37.831      C403.959,402.521,403.507,397.938,403.242,390.967z" fill="#999999"/><path d="M255.629,122.218c-2.676-2.232-10.561-9.446-10.866-17.325c-0.165-4.227,1.953-8.158,6.467-12.027      c10.653-9.126,15.821-20.377,14.178-30.864c-0.685-4.37-2.56-8.329-5.401-11.638c1.757-2.284,2.804-5.138,2.812-8.242      c0-7.495-6.074-13.561-13.566-13.561c-7.495,0-13.564,6.066-13.564,13.561c0.005,7.484,6.074,13.562,13.561,13.564      c0.238,0,0.463-0.021,0.698-0.038c2.603,2.121,4.27,4.851,4.765,8.017c1.034,6.607-2.9,14.449-10.533,20.98      c-7.086,6.074-10.528,13.028-10.228,20.664c0.257,6.973,3.745,13.109,7.409,17.723c-21.405,2.262-52.541,9.384-55.579,23.399      c-0.176,0.79,12.03,1.331,20.729,1.637c2.229,0.082,1.196,23.399,1.196,23.399l96.122-0.132c0,0-0.717-23.386,1.737-23.508      c6.973-0.346,17.736-0.839,17.595-1.469C319.431,129.318,275.151,122.389,255.629,122.218z" fill="#999999"/></g><g><path d="M336.096,335.586c-10.518,0-19.043,8.523-19.046,19.043c0.003,10.512,8.517,19.043,19.03,19.043      c0.003,0,0.008,0,0.011,0c0.004,0,0.007,0,0.011,0c10.512,0,19.04-8.532,19.04-19.043      C355.142,344.109,346.607,335.586,336.096,335.586 M177.432,335.575c-10.516,0-19.037,8.531-19.037,19.043      c-0.002,10.518,8.52,19.043,19.033,19.043c0.003,0,0.007,0,0.011,0c0.004,0,0.007,0,0.011,0      c10.515,0,19.038-8.526,19.043-19.043c-0.005-10.515-8.54-19.043-19.051-19.043      C177.438,335.575,177.435,335.575,177.432,335.575 M317.688,408.446l-120.146-0.006l0.003-13.712h120.144V408.446       M127.79,176.845l-0.019,241.144l263.125,0.019l0.015-241.143l-56.768-0.004l-0.003,19.22l50.555,0.008l-0.011,193.981      l-254.94-0.017l0.006-193.981h50.549v-19.223L127.79,176.845" opacity="0"/><g><defs><polyline id="SVGID_1_" points="129.744,176.815 384.694,176.815 384.694,408.446 129.744,408.446 129.744,176.815       "/></defs><clipPath id="SVGID_2_"><use overflow="visible" xlink:href="#SVGID_1_"/></clipPath><polyline clip-path="url(#SVGID_2_)" fill="#009530" points="317.688,394.729 197.545,394.729 197.542,408.44 317.688,408.446        317.688,394.729      "/><path clip-path="url(#SVGID_2_)" d="M320.719,317.733l-15.658,0.011v1.97c0.312,0.189,0.541,0.53,0.695,0.953       l6.754,0.005c0.243-0.676,0.717-1.131,1.277-1.136c0.563,0.005,1.039,0.454,1.277,1.125l5.982,0.011       C320.838,319.909,320.7,318.962,320.719,317.733 M189.091,241.95c-0.284,0-0.552,0.138-0.786,0.471       c-0.999,1.423-0.322,3.762,1.504,3.762c0.653,0,1.453-0.299,2.375-1.046C192.185,245.137,190.457,241.95,189.091,241.95        M336.08,373.672c-10.514,0-19.027-8.531-19.03-19.043c0.003-10.52,8.528-19.043,19.046-19.043       c10.512,0,19.046,8.523,19.046,19.043c0,10.511-8.528,19.043-19.04,19.043c-0.004,0-0.007,0-0.011,0       C336.088,373.672,336.083,373.672,336.08,373.672 M177.428,373.661c-10.513,0-19.035-8.525-19.033-19.043       c0-10.512,8.521-19.043,19.037-19.043c0.003,0,0.005,0,0.009,0c10.512,0,19.046,8.528,19.051,19.043       c-0.005,10.517-8.528,19.043-19.043,19.043c-0.004,0-0.007,0-0.011,0C177.435,373.661,177.431,373.661,177.428,373.661        M303.9,312.095v-1.277c-1.013-0.222-1.77-1.244-1.765-2.473c-0.005-1.401,0.964-2.527,2.165-2.527       c1.193,0,2.175,1.126,2.17,2.522c0,1.082-0.587,2.002-1.41,2.354l0.003,1.401l18.759,0.006c0,0,0.027-0.002,0.078-0.002       c0.529,0,3.58,0.234,3.58,5.641c-0.002,5.402-2.812,5.641-3.308,5.641c-0.048,0-0.074-0.002-0.074-0.002       s-0.055,0.007-0.15,0.007c-0.419,0-1.616-0.133-2.42-1.555h-6.315c-0.078,1.028-0.688,1.835-1.421,1.835       c-0.744,0-1.345-0.807-1.426-1.835h-6.464c-0.084,1.028-0.682,1.835-1.423,1.835c-0.79,0-1.445-0.931-1.438-2.063       c-0.002-0.844,0.35-1.569,0.858-1.889v-1.97l-101.675,0.044c0,0-0.302,0.01-0.827,0.01c-3.239,0-14.968-0.372-16.666-5.714       L303.9,312.095 M324.362,268.659c-0.227,0-0.437-0.116-0.572-0.613c-0.414-1.516,1.646-1.656,1.646-1.656       s0.367-0.306,1.021-0.306c0.327,0,0.726,0.076,1.185,0.306c1.377,0.688-0.961,1.656-0.82,3.063       c0.055,0.555,0.237,0.646,0.488,0.646c0.063,0,0.128-0.006,0.197-0.012c0.069-0.005,0.143-0.011,0.217-0.011       c0.318,0,0.68,0.1,1.017,0.724c0.603,1.1-2.15,3.005-4.063,3.005c-0.714,0-1.312-0.266-1.573-0.938       c-0.971-2.484,2.476-1.521,2.338-3.42c-0.052-0.722-0.243-0.878-0.484-0.878c-0.092,0-0.19,0.022-0.291,0.045       S324.462,268.659,324.362,268.659 M264.313,268.451l-2.344-0.688c0,0,2.277-2.384,3.51-2.385c0.188,0,0.351,0.056,0.479,0.183       c0.972,0.963-1.647,5.093,0,5.098c1.429,0,5.399-2.89,6.829-2.89c0.23,0,0.395,0.074,0.472,0.249       c0.424,0.974-4.571,5.501-7.626,5.501c-0.9,0-1.632-0.394-2.007-1.389c-1.26-3.321-0.206-3.719,0.371-3.719       C264.178,268.412,264.313,268.451,264.313,268.451 M165.149,256.185L165.149,256.185L165.149,256.185       c0,0-1.672,12.607,0.414,12.607c2.078,0,2.766-2.711,2.766-2.711c1.936,3.999-0.505,7.054-2.872,7.054       c-1.192,0-2.365-0.775-2.951-2.595C160.763,265.107,165.149,256.185,165.149,256.185 M209.825,254.244       c-1.934,0-2.495-3.722,0.783-4.069c0.083-0.009,0.162-0.013,0.238-0.013c3.28,0-0.241,7.97-0.241,7.97v-4.075       C210.327,254.187,210.066,254.244,209.825,254.244 M320.227,252.483l-0.561-4.473c-3.099-1.035-2.876-4.925-1.129-4.925       c0.327,0,0.709,0.137,1.132,0.456C324.293,247.01,320.227,252.483,320.227,252.483 M162.58,248.153       c0.834-0.857,8.466-8.604,11.765-8.604c0.483,0,0.872,0.166,1.135,0.542C177.617,243.17,165.448,245.287,162.58,248.153       c-0.048,0.05-0.074,0.077-0.074,0.077C162.529,248.204,162.554,248.179,162.58,248.153 M311.576,246.095       c-0.381,0-0.784-0.198-0.454-1.182c0,0,7.95-7.993,9.77-7.994c0.126,0,0.223,0.039,0.285,0.12       c0.96,1.264-3.583,5.574-9.095,8.964C312.082,246.003,311.834,246.095,311.576,246.095 M249.604,239.379l1.161-3.729       c0,0,1.351,5.352-0.979,5.582c-0.123,0.012-0.239,0.018-0.348,0.018c-1.648,0-1.787-1.329-1.79-1.746       c-0.023,0.502-0.201,2.38-1.547,2.542c-0.08,0.01-0.158,0.015-0.235,0.015c-1.428,0-2.409-1.717-1.12-4.471l1.358,1.791       c0.776-0.046,0.974-2.765,0.974-2.765L249.604,239.379 M221.898,269.671c1.39,0,3.062-0.676,5.001-2.615       c6.402-6.402,8.924-8.728,8.924-10.863c0-2.135-5.233-16.632-5.233-16.632s-1.564-5.09,2.135-5.861       c0.081-0.017,0.162-0.026,0.242-0.026c3.554,0,6.164,16.636,6.739,22.519c0.573,6.008,8.333,10.473,8.333,10.473       s-0.963-7.176,5.431-8.533c0,0-1.417-1.957-5.796-1.957c-0.194,0-0.394,0.003-0.601,0.012c-0.21,0.009-0.413,0.013-0.608,0.013       c-4.323,0-5.212-2.053-5.212-2.053s-1.163-6.302,6.594-7.259c7.757-0.966,7.181-2.987,7.181-2.987s-2.53-7.281,4.648-9.032       c0.734-0.18,1.416-0.262,2.046-0.262c5.522,0,7.045,6.312,5.136,8.398c-2.135,2.327-17.655,9.118-17.655,9.118l24.06-0.904l0,0       c0,0-0.397,6.145-4.077,6.913c-3.686,0.778-17.266,1.428-18.034,6.536c-0.782,5.103,7.359,2.002,6.591,7.462       c-0.125,0.867-1.396,1.354-3.27,1.354c-4.777,0-13.475-3.167-17.096-11.279c0,0-9.488,12.608-16.748,12.608       c-0.081,0-0.161-0.002-0.242-0.005c-6.413-0.249-6.285-7.76-6.285-7.76l-15.907,5.975l15.907-10.233l3.295-8.641l1.101,5.913       c0,0,8.212-4.704,8.017-8.844c-0.197-4.134-5.046-9.808-5.046-9.808l2.527-5.395l5.036,5.395l-1.748,1.201       c0,0,2.717,4.078,1.75,10.087c-0.974,6.012-12.03,13.392-12.03,13.392S218.702,269.671,221.898,269.671 M215.073,225.02       L215.073,225.02L215.073,225.02c0,0-1.938,4.213-0.969,5.382c0.153,0.183,0.367,0.26,0.619,0.26       c1.346,0,3.775-2.191,3.775-2.191s-1.913,4.158-4.18,4.158c-0.5,0-1.017-0.202-1.534-0.695       C209.918,229.192,215.073,225.02,215.073,225.02 M314.701,232.104c0,0-1.184-7.57,2.453-7.57c0.037,0,0.074,0.001,0.112,0.002       c0,0,2.941,1.647,0,3.022c-1.867,0.879-0.222,7.517-1.74,8.096c-0.058,0.022-0.113,0.033-0.168,0.033       c-0.636,0-1.096-1.434-1.55-2.867s-0.902-2.868-1.517-2.868c-0.109,0-0.224,0.045-0.345,0.145       c-0.392,0.317-0.904,0.411-1.372,0.411c-0.669,0-1.245-0.191-1.245-0.191s-1.371-2.887,1.104-3.577       c0.134-0.038,0.267-0.056,0.396-0.056C313.1,226.683,314.701,232.104,314.701,232.104 M286.716,225.808l1.166-3.729       c0,0,1.348,5.352-0.972,5.596c-0.12,0.012-0.233,0.017-0.341,0.017c-1.663,0-1.799-1.335-1.8-1.756       c-0.026,0.506-0.212,2.379-1.547,2.547c-0.079,0.01-0.156,0.015-0.233,0.015c-1.433,0-2.409-1.715-1.128-4.474l1.361,1.786       c0.773-0.043,0.969-2.755,0.969-2.755L286.716,225.808 M340.663,223.908l-0.679-5.512c-3.826-1.282-3.552-6.069-1.399-6.069       c0.405,0,0.877,0.169,1.399,0.563C345.683,217.16,340.663,223.908,340.663,223.908 M197.647,243.042       c-0.456-9.646-1.189-22.27-2.167-29.879c0,0-0.195-2.251,2.716-3.363c0,0,6.212,10.323,2.132,11.48       c0,0,0.605,9.468,1.047,18.851l3.025-2.362c0,0,0.002,6.137,2.55,6.137c0.053,0,0.108-0.003,0.164-0.008       c2.719-0.276,4.656-6.128,4.656-6.128s1.356,6.01,3.493,6.128c0.02,0.001,0.04,0.001,0.06,0.001c2.076,0,2.267-6.13,2.267-6.13       c2.138,3.491,0.189,9.113-2.517,9.113c-2.725,0-4.278-1.94-4.278-1.94c-1.936,1.875-3.576,2.499-4.904,2.499       c-2.656,0-4.06-2.499-4.06-2.499l-0.241,0.142c0.229,5.772,0.336,10.818,0.122,12.656c-0.611,5.234-4.573,11.939-13.604,14.391       c-2.329,0.629-4.483,0.894-6.41,0.894c-4.492,0-7.748-1.44-9.105-3.068c-1.945-2.322-4.267-14.155,0.006-18.809l0,0l0,0       c0,0-1.794,14.009,4.069,16.092c0.911,0.325,2.22,0.497,3.748,0.497c6.701,0,17.622-3.297,17.776-11.351       c0,0-0.121-3.699-0.354-9.084l-1.581,0.934c2.316,5.993-3.838,16.429-14.538,16.429c-0.049,0-0.1-0.001-0.149-0.001       c-10.783-0.097-5.845-16.428-5.845-16.428c-0.466,10.444,3.986,11.273,5.413,11.273c0.27,0,0.432-0.029,0.432-0.029       c12.668-2.317,11.967-11.244,11.967-11.244c-1.468,1.231-2.907,1.767-4.183,1.767c-2.362,0-4.163-1.835-4.541-4.478       c-0.587-4.075,1.748-7.755,5.36-7.763c3.615,0.008,6.375,6.136,6.375,6.136L197.647,243.042 M177.86,233.699l-2.351-21.802       c0,0-0.335-2.1,1.317-2.1c0.13,0,0.272,0.013,0.428,0.041c0,0,4.454,5.43,2.132,7.56c0,0,0.775,6.186,1.403,13.479       c0.483-1.186,0.83-2.662,1.043-4.29c-1.12-5.154-0.4-11.199-0.357-11.562c0.076-0.571,0.552-0.996,1.118-1.023       c0.029-0.003,0.058-0.004,0.086-0.004c0.504,0,0.999,0.416,1.096,0.948c0.608,3.128,0.887,7.565,0.411,11.551       c0.417,1.743,1.071,3.247,2.073,4.18c0.7,0.649,1.537,0.975,2.543,0.975c0.348,0,0.717-0.039,1.107-0.117       c1.588-0.3,2.6-1.018,3.09-2.165c1.588-3.688-2.238-11.047-3.85-13.578c-0.349-0.538-0.189-1.263,0.352-1.596       c0.198-0.127,0.419-0.188,0.637-0.188c0.384,0,0.758,0.189,0.976,0.534c0.265,0.412,6.415,10.185,4.026,15.748       c-0.806,1.883-2.419,3.063-4.786,3.534c-0.542,0.104-1.063,0.156-1.563,0.156c-1.599,0-2.983-0.531-4.127-1.601       c-0.509-0.484-0.95-1.053-1.331-1.702c-0.433,1.353-1.007,2.543-1.737,3.45c-0.161,0.194-0.329,0.374-0.502,0.538       c0.676,9.215,0.895,18.793-1.037,19.392l-1.945-18.04c-0.099,0.007-0.198,0.011-0.298,0.012h-0.041       c-2.24-0.002-3.942-0.687-5.057-2.051c-2.446-3.003-1.312-8.437-0.403-12.804c0.346-1.672,0.812-3.91,0.69-4.732       c-2.322,0.352-3.12,5.32-3.767,9.335c-0.701,4.327-1.307,8.058-3.815,8.521c-0.162,0.033-0.323,0.049-0.482,0.049       c-0.568,0-1.111-0.207-1.596-0.617c-2.971-2.503-2.96-13.824-2.919-16.061c0.008-0.644,0.527-1.156,1.161-1.156h0.016       c0.644,0.014,1.155,0.542,1.145,1.186c-0.067,5.119,0.528,12.928,2.1,14.256c0.065,0.054,0.098,0.066,0.123,0.066       c0.01,0,0.02-0.002,0.029-0.004c0.901-0.167,1.553-4.202,1.937-6.615c0.85-5.249,1.811-11.205,6.24-11.31       c0.025-0.001,0.049-0.001,0.074-0.001c0.606,0,1.15,0.255,1.515,0.697c1.003,1.209,0.541,3.458-0.173,6.862       c-0.769,3.685-1.81,8.715-0.062,10.85c0.655,0.814,1.715,1.199,3.247,1.199l0.03,0.002       C177.82,233.7,177.84,233.7,177.86,233.699 M278.073,274.826c16.56-9.443,15.421-15.602,15.282-21.247       c-0.268-11.518-3.712-37.442-3.712-39.652c0.003-2.208,2.896-4.202,2.896-4.202l3.165,9.99h-1.929       c0,0,3.982,27.945,2.067,41.448C293.913,274.653,278.073,274.826,278.073,274.826 M241.256,220.772       c0,0-3.307-11.05-1.305-11.05c0.098,0,0.208,0.026,0.331,0.081C245.91,212.279,241.256,220.772,241.256,220.772        M276.012,267.353l-2.728-37.727l-10.764-14.373l-0.552-6.55l9.229,7.979l-2.205,0.411l4.262,6.199       c0,0-2.467-13.569-0.019-13.569c0.008,0,0.014,0,0.021,0c2.478,0.081,6.478,11.234,4.543,11.775l-0.958-0.717l0.408,9.256       c0,0,14.595,20.796,14.321,28.646c0,0-3.858-6.199-14.045-22.309C277.527,236.374,281.794,266.947,276.012,267.353        M303.689,265.378c0,0-3.442-36.992-5.101-44.598c-1.648-7.606,0.83-11.943,2.349-12.078c0.025-0.002,0.051-0.003,0.075-0.003       c1.424,0,1.054,3.769,2.679,6.554c1.429,2.465,2.194,5.528,2.194,5.528h-3.022c0,0,3.169,26.465,4.408,32.799       C308.503,259.918,303.689,265.378,303.689,265.378 M333.02,234.583c0,0-1.656-14.316-2.205-17.62       c-0.55-3.312,0.273-7.984,2.202-8.26c0.022-0.003,0.045-0.005,0.067-0.005c0.952,0,2.094,2.755,2.799,5.509       c0.706,2.754,0.977,5.509,0.189,5.509c-0.01,0-0.021,0-0.03-0.001l-0.961,0.002l1.47,19.148c0,0,8.434,11.418,8.853,13.618       c0.414,2.205,0.55,6.201,0.55,6.201l-9.633-12.265c0,0,2.284,12.404,0.344,12.404c-0.021,0-0.042-0.002-0.064-0.005       l-2.481-15.833l-6.478-8.263l1.244,19.522c0,0,1.786,9.255-5.579,10.494c-0.656,0.11-1.243,0.161-1.768,0.161       c-2.65,0-3.741-1.281-4.483-2.563c-0.743-1.281-1.139-2.563-2.398-2.563c-0.029,0-0.06,0.001-0.09,0.002       c-2.898,0.142-3.444,13.167-9.367,13.74c-0.29,0.028-0.566,0.042-0.832,0.042c-5.155,0-5.767-5.211-5.635-8.176       c0.132-3.128,1.924-9.452,1.924-9.452s0.125,12.622,3.716,12.622c0.178,0,0.363-0.031,0.559-0.096       c4.098-1.371,6.302-14.213,9.433-14.213c0.02,0,0.039,0,0.06,0.001c2.916,0.157,3.849,5.521,6.87,5.521       c0.264,0,0.545-0.042,0.844-0.131c3.718-1.092,3.718-4.671,3.169-10.045c-0.558-5.368-1.239-21.091-1.239-21.091l-9.5-11.952       l0.005-7.846l7.151,7.159l-1.101,0.276l2.754,4.643l-0.408-4.919c0,0-1.794-5.666,1.513-6.137c0,0,4.681,7.787,3.718,8.753       c-0.451,0.451-0.751,0.571-0.942,0.571c-0.22,0-0.297-0.157-0.297-0.157l0.682,8.54L333.02,234.583 M332.435,273.685       c16.557-9.443,15.418-15.603,15.28-21.247c-0.273-11.507-3.718-37.442-3.716-39.645c0-2.213,2.898-4.213,2.898-4.213       l3.152,9.995l-1.913-0.005c0,0,3.988,27.947,2.057,41.445C348.267,273.511,332.435,273.685,332.435,273.685 M205.181,226.906       c0,0,11.245-7.76,9.505-10.91c-3.536-6.382-0.553-7.489,1.944-7.489c1.326,0,2.516,0.313,2.516,0.313       C225.544,219.825,205.181,226.906,205.181,226.906 M283.858,219.709l-0.679-5.501c-3.828-1.28-3.56-6.066-1.4-6.066       c0.405,0,0.877,0.168,1.4,0.56C288.875,212.972,283.858,219.709,283.858,219.709 M185.389,213.716       c-0.058,0-0.115-0.002-0.174-0.006c-0.693-0.035-1.272-0.33-1.662-0.858c-1.034-1.369-0.455-3.939-0.392-4.224       c0.095-0.388,0.439-0.638,0.815-0.638c0.063,0,0.125,0.007,0.188,0.021c0.452,0.106,0.728,0.549,0.617,0.996       c-0.195,0.86-0.3,2.302,0.108,2.844c0.062,0.095,0.162,0.181,0.408,0.195c0.257,0,0.452-0.052,0.625-0.225       c0.249-0.23,0.422-0.625,0.533-1.028c0.021-0.733,0.165-1.353,0.214-1.561c0.089-0.379,0.437-0.639,0.813-0.639       c0.032,0,0.064,0.002,0.096,0.006c0.422,0.051,0.739,0.406,0.736,0.828c0,0.127-0.005,0.806-0.195,1.583       c-0.011,0.5,0.054,0.955,0.246,1.185c0.035,0.046,0.133,0.114,0.412,0.127c0.143-0.003,0.419-0.038,0.5-0.163       c0.167-0.281-0.016-1.058-0.214-1.491c-0.192-0.414-0.011-0.909,0.403-1.106c0.114-0.052,0.233-0.077,0.35-0.077       c0.313,0,0.612,0.176,0.754,0.478c0.146,0.309,0.833,1.896,0.13,3.055c-0.252,0.411-0.771,0.923-1.846,0.974h-0.135       c-0.85,0-1.364-0.395-1.642-0.736l-0.106-0.133C186.532,213.503,185.982,213.716,185.389,213.716 M166.031,211.672       c-0.702,0-1.017-0.967-0.821-1.934c0.196-0.967,0.902-1.934,2.245-1.934c0.207,0,0.428,0.022,0.665,0.072       c3.788,0.774-0.725,8.12-0.725,8.12c-0.953-0.054,0.779-3.95,0.441-5.347c-0.082-0.343-0.188-0.472-0.302-0.472       c-0.345,0-0.756,1.197-0.756,1.197C166.495,211.583,166.245,211.672,166.031,211.672 M255.41,228.825       c3.298-0.796-2.127-14.717-2.127-14.717s2.127-6.009,3.396-6.302c0.021-0.005,0.043-0.007,0.066-0.007       c1.315,0,4.485,8.201,4.485,8.201l-2.522,0.002c0,0,3.296,15.168-2.029,16.632c-0.646,0.175-1.261,0.252-1.844,0.252       c-4.238,0-6.787-4.062-6.787-4.062s1.158,3.517-7.381,4.846c-0.375,0.059-0.729,0.086-1.066,0.086       c-4.278,0-5.506-4.531-5.787-8.294c-0.515,2.671-2.007,5.595-5.943,6.471c-0.345,0.077-0.667,0.113-0.969,0.113       c-6.47,0-3.101-16.875-3.101-16.875s-0.007,13.685,3.379,13.685c0.1,0,0.203-0.012,0.309-0.037       c3.531-0.81,5.455-15.737,9.028-15.737c0.153,0,0.31,0.027,0.469,0.084c3.883,1.38-4.933,16.291,3.106,16.654       c0.192,0.008,0.379,0.013,0.562,0.013c7.471,0,7.337-6.995,5.255-14.667c-1.544-5.674,0.153-6.462,1.215-6.461       c0.408,0,0.722,0.116,0.722,0.116C252.499,209.159,245.526,226.909,255.41,228.825 M180.298,176.849v19.223H129.75       l-0.006,193.981l254.94,0.017l0.011-193.981l-50.555-0.008l0.003-19.22L180.298,176.849" fill="#009530"/><path clip-path="url(#SVGID_2_)" d="M312.51,320.672l-6.754-0.005c-0.154-0.423-0.384-0.764-0.695-0.953v-1.97       l15.658-0.011c-0.019,1.229,0.119,2.176,0.328,2.938l-5.982-0.011c-0.238-0.671-0.715-1.12-1.277-1.125       C313.227,319.541,312.753,319.996,312.51,320.672 M304.301,305.817c-1.201,0-2.17,1.126-2.165,2.527       c-0.005,1.229,0.752,2.251,1.765,2.473v1.277l-119.167-0.011c1.698,5.342,13.427,5.714,16.666,5.714       c0.525,0,0.827-0.01,0.827-0.01l101.675-0.044v1.97c-0.509,0.319-0.86,1.045-0.858,1.889c-0.008,1.132,0.647,2.063,1.438,2.063       c0.741,0,1.339-0.807,1.423-1.835h6.464c0.081,1.028,0.682,1.835,1.426,1.835c0.733,0,1.343-0.807,1.421-1.835h6.315       c0.804,1.422,2.001,1.555,2.42,1.555c0.096,0,0.15-0.007,0.15-0.007s0.026,0.002,0.074,0.002c0.496,0,3.306-0.238,3.308-5.641       c0-5.406-3.051-5.641-3.58-5.641c-0.051,0-0.078,0.002-0.078,0.002l-18.759-0.006l-0.003-1.401       c0.823-0.352,1.41-1.271,1.41-2.354C306.476,306.943,305.494,305.817,304.301,305.817" fill="#FFFFFF"/><path clip-path="url(#SVGID_2_)" d="M173.245,214.09c-0.024,0-0.049,0-0.074,0.001       c-4.429,0.105-5.39,6.061-6.24,11.31c-0.384,2.414-1.036,6.448-1.937,6.615c-0.009,0.002-0.019,0.004-0.029,0.004       c-0.025,0-0.058-0.013-0.123-0.066c-1.572-1.329-2.167-9.137-2.1-14.256c0.011-0.644-0.5-1.172-1.145-1.186h-0.016       c-0.633,0-1.153,0.512-1.161,1.156c-0.041,2.237-0.052,13.558,2.919,16.061c0.484,0.41,1.027,0.617,1.596,0.617       c0.159,0,0.32-0.016,0.482-0.049c2.508-0.463,3.114-4.194,3.815-8.521c0.646-4.015,1.445-8.983,3.767-9.335       c0.122,0.823-0.344,3.061-0.69,4.732c-0.909,4.367-2.043,9.8,0.403,12.804c1.115,1.364,2.817,2.048,5.057,2.051h0.041       c0.1-0.001,0.2-0.005,0.298-0.012l-0.25-2.319c-0.02,0-0.04,0.001-0.059,0.001l-0.03-0.002c-1.531,0-2.592-0.384-3.247-1.199       c-1.748-2.135-0.707-7.165,0.062-10.85c0.714-3.404,1.177-5.652,0.173-6.862C174.396,214.345,173.852,214.09,173.245,214.09        M182.679,213.999c-0.029,0-0.058,0.001-0.086,0.004c-0.565,0.027-1.042,0.452-1.118,1.023       c-0.043,0.362-0.763,6.407,0.357,11.562c-0.214,1.628-0.561,3.104-1.043,4.29c0.107,1.239,0.209,2.512,0.303,3.79       c0.174-0.165,0.341-0.344,0.502-0.538c0.73-0.907,1.304-2.097,1.737-3.45c0.381,0.649,0.822,1.218,1.331,1.702       c1.144,1.07,2.528,1.601,4.127,1.601c0.5,0,1.022-0.052,1.563-0.156c2.367-0.471,3.98-1.65,4.786-3.534       c2.389-5.563-3.761-15.336-4.026-15.748c-0.218-0.345-0.592-0.534-0.976-0.534c-0.218,0-0.439,0.061-0.637,0.188       c-0.541,0.333-0.701,1.058-0.352,1.596c1.612,2.53,5.438,9.89,3.85,13.578c-0.49,1.147-1.501,1.864-3.09,2.165       c-0.39,0.078-0.759,0.117-1.107,0.117c-1.006,0-1.843-0.325-2.543-0.975c-1.001-0.933-1.656-2.438-2.073-4.18       c0.476-3.985,0.197-8.423-0.411-11.551C183.678,214.414,183.184,213.999,182.679,213.999" fill="#FFFFFF"/><path clip-path="url(#SVGID_2_)" d="M167.455,207.805c-1.342,0-2.049,0.967-2.245,1.934       c-0.196,0.967,0.119,1.934,0.821,1.934c0.214,0,0.464-0.09,0.746-0.297c0,0,0.411-1.197,0.756-1.197       c0.113,0,0.22,0.129,0.302,0.472c0.338,1.396-1.394,5.292-0.441,5.347c0,0,4.513-7.346,0.725-8.12       C167.883,207.827,167.662,207.805,167.455,207.805" fill="#FFFFFF"/><path clip-path="url(#SVGID_2_)" d="M183.977,207.991c-0.376,0-0.72,0.25-0.815,0.638       c-0.063,0.284-0.642,2.854,0.392,4.224c0.39,0.528,0.969,0.823,1.662,0.858c0.059,0.004,0.116,0.006,0.174,0.006       c0.594,0,1.144-0.213,1.584-0.593l0.106,0.133c0.278,0.341,0.792,0.736,1.642,0.736h0.135c1.074-0.051,1.594-0.563,1.846-0.974       c0.703-1.158,0.016-2.746-0.13-3.055c-0.142-0.301-0.441-0.478-0.754-0.478c-0.117,0-0.236,0.025-0.35,0.077       c-0.414,0.197-0.595,0.692-0.403,1.106c0.198,0.433,0.381,1.209,0.214,1.491c-0.082,0.125-0.357,0.16-0.5,0.163       c-0.279-0.014-0.376-0.081-0.412-0.127c-0.192-0.23-0.257-0.685-0.246-1.185c0.189-0.776,0.195-1.456,0.195-1.583       c0.003-0.422-0.314-0.777-0.736-0.828c-0.032-0.004-0.064-0.006-0.096-0.006c-0.376,0-0.724,0.26-0.813,0.639       c-0.049,0.208-0.192,0.828-0.214,1.561c-0.111,0.403-0.284,0.798-0.533,1.028c-0.173,0.173-0.368,0.225-0.625,0.225       c-0.246-0.014-0.346-0.1-0.408-0.195c-0.409-0.542-0.303-1.983-0.108-2.844c0.111-0.447-0.165-0.89-0.617-0.996       C184.102,207.998,184.039,207.991,183.977,207.991" fill="#FFFFFF"/><path clip-path="url(#SVGID_2_)" d="M176.827,209.797c-1.652,0-1.317,2.1-1.317,2.1l2.351,21.802l0.25,2.319       l1.945,18.04c1.932-0.599,1.713-10.177,1.037-19.392c-0.093-1.277-0.196-2.551-0.303-3.79       c-0.628-7.293-1.403-13.479-1.403-13.479c2.322-2.129-2.132-7.56-2.132-7.56C177.099,209.811,176.957,209.797,176.827,209.797" fill="#FFFFFF"/><path clip-path="url(#SVGID_2_)" d="M162.58,248.153c-0.025,0.025-0.05,0.051-0.074,0.077       C162.505,248.23,162.531,248.203,162.58,248.153 M174.345,239.549c-3.299,0-10.931,7.748-11.765,8.604       c2.869-2.867,15.037-4.983,12.9-8.062C175.217,239.714,174.828,239.549,174.345,239.549" fill="#FFFFFF"/><path clip-path="url(#SVGID_2_)" d="M201.593,245.084l-3.752,2.217c0.233,5.385,0.354,9.084,0.354,9.084       c-0.154,8.054-11.076,11.351-17.776,11.351c-1.528,0-2.837-0.172-3.748-0.497c-5.863-2.083-4.069-16.092-4.069-16.092       c-4.272,4.654-1.951,16.487-0.006,18.809c1.358,1.628,4.613,3.068,9.105,3.068c1.926,0,4.081-0.265,6.41-0.894       c9.032-2.451,12.993-9.156,13.604-14.391C201.929,255.902,201.822,250.857,201.593,245.084 M198.197,209.8       c-2.911,1.112-2.716,3.363-2.716,3.363c0.978,7.609,1.711,20.233,2.167,29.879l3.729-2.911       c-0.442-9.382-1.047-18.851-1.047-18.851C204.409,220.123,198.197,209.8,198.197,209.8" fill="#FFFFFF"/><path clip-path="url(#SVGID_2_)" d="M165.149,256.185c0,0-4.386,8.922-2.644,14.355       c0.585,1.819,1.759,2.595,2.951,2.595c2.367,0,4.808-3.055,2.872-7.054c0,0-0.688,2.711-2.766,2.711       C163.477,268.792,165.149,256.185,165.149,256.185" fill="#FFFFFF"/><path clip-path="url(#SVGID_2_)" d="M189.809,246.183c-1.826,0-2.503-2.339-1.504-3.762       c0.234-0.333,0.502-0.471,0.786-0.471c1.366,0,3.094,3.188,3.094,3.188C191.262,245.884,190.462,246.183,189.809,246.183        M190.177,237.762c-3.612,0.008-5.947,3.688-5.36,7.763c0.377,2.643,2.178,4.478,4.541,4.478c1.276,0,2.715-0.535,4.183-1.767       c0,0,0.701,8.927-11.967,11.244c0,0-0.162,0.029-0.432,0.029c-1.427,0-5.879-0.829-5.413-11.273c0,0-4.938,16.331,5.845,16.428       c0.049,0,0.1,0.001,0.149,0.001c10.699,0,16.854-10.436,14.538-16.429l1.581-0.934l3.752-2.217l0.241-0.142       c0,0,1.404,2.499,4.06,2.499c1.328,0,2.969-0.625,4.904-2.499c0,0,1.553,1.94,4.278,1.94c2.706,0,4.654-5.623,2.517-9.113       c0,0-0.191,6.13-2.267,6.13c-0.02,0-0.04,0-0.06-0.001c-2.137-0.119-3.493-6.128-3.493-6.128s-1.937,5.853-4.656,6.128       c-0.056,0.005-0.11,0.008-0.164,0.008c-2.548,0-2.55-6.137-2.55-6.137l-3.025,2.362l-3.729,2.911l-1.096,0.855       C196.552,243.898,193.792,237.77,190.177,237.762" fill="#FFFFFF"/><path clip-path="url(#SVGID_2_)" d="M210.846,250.163c-0.076,0-0.155,0.004-0.238,0.013       c-3.278,0.347-2.717,4.069-0.783,4.069c0.241,0,0.502-0.057,0.78-0.186v4.075C210.605,258.133,214.126,250.163,210.846,250.163       " fill="#FFFFFF"/><path clip-path="url(#SVGID_2_)" d="M216.629,208.508c-2.497,0-5.479,1.107-1.944,7.489       c1.74,3.149-9.505,10.91-9.505,10.91s20.363-7.081,13.964-18.085C219.145,208.821,217.956,208.508,216.629,208.508" fill="#FFFFFF"/><path clip-path="url(#SVGID_2_)" d="M215.073,225.02c0,0-5.155,4.172-2.289,6.914       c0.517,0.493,1.035,0.695,1.534,0.695c2.268,0,4.18-4.158,4.18-4.158s-2.429,2.191-3.775,2.191       c-0.252,0-0.466-0.077-0.619-0.26C213.135,229.233,215.073,225.02,215.073,225.02" fill="#FFFFFF"/><path clip-path="url(#SVGID_2_)" d="M232.967,233.674c-0.08,0-0.161,0.009-0.242,0.026       c-3.699,0.771-2.135,5.861-2.135,5.861s5.233,14.497,5.233,16.632c0,2.135-2.522,4.46-8.924,10.863       c-1.939,1.939-3.611,2.615-5.001,2.615c-3.196,0-4.894-3.579-4.894-3.579s11.056-7.38,12.03-13.392       c0.966-6.009-1.75-10.087-1.75-10.087l1.748-1.201l-5.036-5.395l-2.527,5.395c0,0,4.849,5.674,5.046,9.808       c0.195,4.14-8.017,8.844-8.017,8.844l-1.101-5.913l-3.295,8.641l-15.907,10.233l15.907-5.975c0,0-0.127,7.511,6.285,7.76       c0.081,0.003,0.161,0.005,0.242,0.005c7.26,0,16.748-12.608,16.748-12.608c3.621,8.112,12.318,11.279,17.096,11.279       c1.874,0,3.145-0.487,3.27-1.354c0.769-5.46-7.373-2.359-6.591-7.462c0.769-5.108,14.349-5.758,18.034-6.536       c3.68-0.769,4.077-6.913,4.077-6.913l-24.06,0.904c0,0,15.521-6.792,17.655-9.118c1.909-2.086,0.387-8.398-5.136-8.398       c-0.63,0-1.312,0.082-2.046,0.262c-7.178,1.75-4.648,9.032-4.648,9.032s0.576,2.021-7.181,2.987       c-7.757,0.958-6.594,7.259-6.594,7.259s0.889,2.053,5.212,2.053c0.195,0,0.398-0.004,0.608-0.013       c0.207-0.008,0.406-0.012,0.601-0.012c4.379,0,5.796,1.957,5.796,1.957c-6.394,1.357-5.431,8.533-5.431,8.533       s-7.76-4.465-8.333-10.473C239.131,250.311,236.521,233.674,232.967,233.674" fill="#FFFFFF"/><path clip-path="url(#SVGID_2_)" d="M256.745,207.799c-0.022,0-0.044,0.002-0.066,0.007       c-1.269,0.292-3.396,6.302-3.396,6.302s5.425,13.921,2.127,14.717c-9.884-1.916-2.912-19.666-7.563-20.004       c0,0-0.314-0.116-0.722-0.116c-1.062,0-2.759,0.788-1.215,6.461c2.082,7.672,2.215,14.667-5.255,14.667       c-0.183,0-0.37-0.004-0.562-0.013c-8.039-0.363,0.777-15.274-3.106-16.654c-0.159-0.057-0.316-0.084-0.469-0.084       c-3.574,0-5.497,14.928-9.028,15.737c-0.106,0.024-0.208,0.037-0.309,0.037c-3.387,0-3.379-13.685-3.379-13.685       s-3.369,16.875,3.101,16.875c0.301,0,0.624-0.037,0.969-0.113c3.936-0.875,5.428-3.799,5.943-6.471       c0.281,3.763,1.508,8.294,5.787,8.294c0.336,0,0.691-0.028,1.066-0.086c8.54-1.329,7.381-4.846,7.381-4.846       s2.549,4.062,6.787,4.062c0.583,0,1.199-0.077,1.844-0.252c5.325-1.464,2.029-16.632,2.029-16.632L261.23,216       C261.23,216,258.061,207.799,256.745,207.799" fill="#FFFFFF"/><path clip-path="url(#SVGID_2_)" d="M239.951,209.722c-2.002,0,1.305,11.05,1.305,11.05       s4.654-8.494-0.974-10.969C240.159,209.749,240.049,209.722,239.951,209.722" fill="#FFFFFF"/><path clip-path="url(#SVGID_2_)" d="M247.65,239.382L247.65,239.382L247.65,239.382 M250.764,235.651       l-1.161,3.729l-2.527-2.762c0,0-0.197,2.719-0.974,2.765l-1.358-1.791c-1.289,2.754-0.308,4.471,1.12,4.471       c0.077,0,0.156-0.005,0.235-0.015c1.346-0.162,1.523-2.04,1.547-2.542c0.003,0.417,0.142,1.746,1.79,1.746       c0.109,0,0.225-0.006,0.348-0.018C252.115,241.003,250.764,235.651,250.764,235.651" fill="#FFFFFF"/><path clip-path="url(#SVGID_2_)" d="M265.479,265.379c-1.232,0.001-3.51,2.385-3.51,2.385l2.344,0.688       c0,0-0.135-0.039-0.316-0.039c-0.577,0-1.631,0.397-0.371,3.719c0.375,0.995,1.106,1.389,2.007,1.389       c3.055,0,8.05-4.527,7.626-5.501c-0.077-0.175-0.241-0.249-0.472-0.249c-1.43,0-5.4,2.89-6.829,2.89       c-1.647-0.005,0.972-4.135,0-5.098C265.829,265.435,265.666,265.379,265.479,265.379" fill="#FFFFFF"/><path clip-path="url(#SVGID_2_)" d="M261.969,208.702l0.552,6.55l10.764,14.373l2.728,37.727       c5.782-0.405,1.516-30.979,1.516-30.979c10.187,16.11,14.045,22.309,14.045,22.309c0.273-7.85-14.321-28.646-14.321-28.646       l-0.408-9.256l0.958,0.717c1.935-0.542-2.065-11.694-4.543-11.775c-0.008,0-0.014,0-0.021,0       c-2.448,0,0.019,13.569,0.019,13.569l-4.262-6.199l2.205-0.411L261.969,208.702" fill="#FFFFFF"/><path clip-path="url(#SVGID_2_)" d="M281.779,208.142c-2.159,0-2.428,4.786,1.4,6.066l0.679,5.501       c0,0,5.017-6.737-0.679-11.007C282.656,208.311,282.185,208.142,281.779,208.142" fill="#FFFFFF"/><path clip-path="url(#SVGID_2_)" d="M284.773,225.811L284.773,225.811L284.773,225.811 M287.882,222.079       l-1.166,3.729l-2.524-2.752c0,0-0.195,2.711-0.969,2.755l-1.361-1.786c-1.281,2.759-0.305,4.474,1.128,4.474       c0.077,0,0.154-0.005,0.233-0.015c1.335-0.168,1.521-2.041,1.547-2.547c0.001,0.421,0.137,1.756,1.8,1.756       c0.107,0,0.221-0.005,0.341-0.017C289.229,227.431,287.882,222.079,287.882,222.079" fill="#FFFFFF"/><path clip-path="url(#SVGID_2_)" d="M292.539,209.725c0,0-2.893,1.994-2.896,4.202       c0,2.21,3.444,28.134,3.712,39.652c0.139,5.646,1.277,11.804-15.282,21.247c0,0,15.84-0.173,17.77-13.664       c1.915-13.503-2.067-41.448-2.067-41.448h1.929L292.539,209.725" fill="#FFFFFF"/><path clip-path="url(#SVGID_2_)" d="M301.013,208.699c-0.024,0-0.05,0.001-0.075,0.003       c-1.519,0.135-3.997,4.472-2.349,12.078c1.658,7.606,5.101,44.598,5.101,44.598s4.813-5.46,3.582-11.799       c-1.239-6.334-4.408-32.799-4.408-32.799h3.022c0,0-0.766-3.063-2.194-5.528C302.066,212.467,302.437,208.699,301.013,208.699" fill="#FFFFFF"/><path clip-path="url(#SVGID_2_)" d="M333.084,208.697c-0.022,0-0.045,0.002-0.067,0.005       c-1.929,0.276-2.752,4.949-2.202,8.26c0.549,3.304,2.205,17.62,2.205,17.62l-5.379-7.151l-0.682-8.54       c0,0,0.077,0.157,0.297,0.157c0.191,0,0.491-0.121,0.942-0.571c0.963-0.966-3.718-8.753-3.718-8.753       c-3.307,0.471-1.513,6.137-1.513,6.137l0.408,4.919l-2.754-4.643l1.101-0.276l-7.151-7.159l-0.005,7.846l9.5,11.952       c0,0,0.682,15.723,1.239,21.091c0.549,5.374,0.549,8.953-3.169,10.045c-0.299,0.089-0.58,0.131-0.844,0.131       c-3.021,0-3.954-5.365-6.87-5.521c-0.021-0.001-0.04-0.001-0.06-0.001c-3.131,0-5.335,12.842-9.433,14.213       c-0.195,0.064-0.381,0.096-0.559,0.096c-3.591,0-3.716-12.622-3.716-12.622s-1.792,6.324-1.924,9.452       c-0.132,2.965,0.479,8.176,5.635,8.176c0.266,0,0.542-0.014,0.832-0.042c5.923-0.573,6.469-13.599,9.367-13.74       c0.03-0.001,0.061-0.002,0.09-0.002c1.26,0,1.655,1.281,2.398,2.563c0.742,1.282,1.833,2.563,4.483,2.563       c0.524,0,1.111-0.051,1.768-0.161c7.365-1.239,5.579-10.494,5.579-10.494l-1.244-19.522l6.478,8.263l2.481,15.833       c0.022,0.003,0.044,0.005,0.064,0.005c1.94,0-0.344-12.404-0.344-12.404l9.633,12.265c0,0-0.136-3.996-0.55-6.201       c-0.419-2.2-8.853-13.618-8.853-13.618l-1.47-19.148l0.961-0.002c0.01,0.001,0.021,0.001,0.03,0.001       c0.787,0,0.517-2.755-0.189-5.509C335.178,211.452,334.036,208.697,333.084,208.697" fill="#FFFFFF"/><path clip-path="url(#SVGID_2_)" d="M346.897,208.58c0,0-2.898,2-2.898,4.213       c-0.002,2.203,3.442,28.137,3.716,39.645c0.138,5.645,1.276,11.804-15.28,21.247c0,0,15.832-0.174,17.759-13.67       c1.932-13.498-2.057-41.445-2.057-41.445l1.913,0.005L346.897,208.58" fill="#FFFFFF"/><path clip-path="url(#SVGID_2_)" d="M338.585,212.328c-2.152,0-2.427,4.787,1.399,6.069l0.679,5.512       c0,0,5.02-6.748-0.679-11.018C339.462,212.497,338.99,212.328,338.585,212.328" fill="#FFFFFF"/><path clip-path="url(#SVGID_2_)" d="M318.537,243.085c-1.747,0-1.97,3.891,1.129,4.925l0.561,4.473       c0,0,4.066-5.474-0.558-8.942C319.246,243.223,318.864,243.085,318.537,243.085" fill="#FFFFFF"/><path clip-path="url(#SVGID_2_)" d="M320.892,236.919c-1.819,0-9.77,7.994-9.77,7.994       c-0.33,0.984,0.073,1.182,0.454,1.182c0.258,0,0.506-0.091,0.506-0.091c5.512-3.391,10.055-7.701,9.095-8.964       C321.114,236.958,321.018,236.919,320.892,236.919" fill="#FFFFFF"/><path clip-path="url(#SVGID_2_)" d="M317.154,224.534c-3.637,0-2.453,7.57-2.453,7.57s-1.602-5.421-3.87-5.421       c-0.13,0-0.263,0.018-0.396,0.056c-2.476,0.69-1.104,3.577-1.104,3.577s0.576,0.191,1.245,0.191       c0.468,0,0.98-0.094,1.372-0.411c0.121-0.099,0.235-0.145,0.345-0.145c0.614,0,1.063,1.434,1.517,2.868s0.914,2.867,1.55,2.867       c0.055,0,0.11-0.011,0.168-0.033c1.519-0.579-0.127-7.216,1.74-8.096c2.941-1.375,0-3.022,0-3.022       C317.229,224.535,317.191,224.534,317.154,224.534" fill="#FFFFFF"/><path clip-path="url(#SVGID_2_)" d="M326.456,266.084c-0.653,0-1.021,0.306-1.021,0.306       s-2.06,0.141-1.646,1.656c0.136,0.497,0.346,0.613,0.572,0.613c0.1,0,0.202-0.022,0.303-0.045s0.199-0.045,0.291-0.045       c0.241,0,0.433,0.156,0.484,0.878c0.138,1.899-3.309,0.936-2.338,3.42c0.262,0.672,0.859,0.938,1.573,0.938       c1.913,0,4.666-1.905,4.063-3.005c-0.337-0.624-0.698-0.724-1.017-0.724c-0.074,0-0.147,0.006-0.217,0.011       c-0.069,0.006-0.135,0.012-0.197,0.012c-0.251,0-0.434-0.092-0.488-0.646c-0.141-1.406,2.197-2.375,0.82-3.063       C327.182,266.16,326.783,266.084,326.456,266.084" fill="#FFFFFF"/></g></g><g><path d="M108.78,390.821c0.097-2.474,15.455-7.029,15.455-7.029l0.206-34.261      c0,0-15.804-6.244-15.907-8.474c-0.4-8.734-0.354-11.289-1.139-11.11c-17.266,3.924-30.811,19.222-30.813,37.681      c0.003,18.707,12.533,34.162,30.137,37.831C107.348,405.595,108.506,397.818,108.78,390.821z" fill="#FFFFFF" opacity="0.3"/><path d="M256.552,122.308c-0.327,0-0.638-0.008-0.938-0.008      c-2.684-2.227-10.59-9.454-10.888-17.344c-0.168-4.232,1.951-8.166,6.467-12.043c2.016-1.724,3.832-3.523,5.444-5.382      c-0.078-24.013-0.078-45.959-0.067-56.85c-2.122-1.366-4.641-2.157-7.346-2.154c-7.503-0.003-13.575,6.072-13.583,13.575      c0.008,7.503,6.08,13.585,13.583,13.585c0.232,0,0.462-0.021,0.69-0.038c2.608,2.121,4.278,4.856,4.778,8.033      c1.031,6.604-2.914,14.457-10.552,21.004c-7.095,6.077-10.537,13.037-10.244,20.683c0.268,6.989,3.75,13.131,7.419,17.745      c-21.424,2.27-52.603,9.397-55.652,23.445c-0.17,0.777,12.043,1.318,20.767,1.629c2.227,0.082,1.193,23.424,1.193,23.424      l48.736-0.068C256.357,171.544,256.549,144.635,256.552,122.308z" fill="#FFFFFF" opacity="0.3"/><path d="M256.636,176.853H180.13l-0.076,19.316h-50.268l-0.019,193.916l126.765,0.006      L256.636,176.853 M178.088,373.791c-10.455-0.005-18.94-8.485-18.938-18.945c0-10.461,8.491-18.935,18.946-18.935      c0.003,0,0.008,0,0.011,0c10.454-0.001,18.927,8.477,18.927,18.939C197.028,365.312,188.554,373.791,178.088,373.791       M256.636,176.853L256.636,176.853" fill="#FFFFFF" opacity="0.302"/><rect fill="#FFFFFF" height="13.69" opacity="0.3" width="59.062" x="197.477" y="394.658"/></g></g></g></svg>